<svg width="93" height="57" viewBox="0 0 93 57" fill="none" xmlns="http://www.w3.org/2000/svg">
<path d="M15.85 6.44116C13.2482 6.34271 12.8403 8.33975 12.8403 8.33975V3.22058C12.8403 4.69726 13.8107 5.93487 15.189 6.34271C15.3859 6.3849 15.5968 6.44116 15.85 6.44116Z" fill="#07113D"/>
<path d="M0 28.1696H9.66173V37.775C4.34567 37.775 0 33.4294 0 28.1696Z" fill="#4DAEB4"/>
<path d="M9.66162 28.1696H19.3234V37.775C13.951 37.775 9.66162 33.4294 9.66162 28.1696Z" fill="#D8603E"/>
<path d="M19.3232 28.1696H28.985V37.775C23.6127 37.775 19.3232 33.4294 19.3232 28.1696Z" fill="#0A8188"/>
<path d="M9.66162 37.7751H19.3234V47.3947C13.951 47.3947 9.66162 43.049 9.66162 37.7751Z" fill="#4DAEB4"/>
<path d="M19.3232 37.7751H28.985V47.3947C23.6127 47.3947 19.3232 43.049 19.3232 37.7751Z" fill="#D8603E"/>
<path d="M19.3232 47.3945H28.985V57C23.6127 57 19.3232 52.7106 19.3232 47.3945Z" fill="#4DAEB4"/>
<path d="M16.0466 9.91504V25.8632H0C0 17.0172 7.21466 9.91504 16.0466 9.91504Z" fill="#0A8188"/>
<path d="M16.0469 25.8631C23.2053 25.8631 29.0276 20.0829 29.0276 12.9245C29.0276 5.7661 23.2615 0 16.0469 0" fill="#F7971E"/>
<path d="M16.0467 6.44115C17.8328 6.44115 19.2673 5.00666 19.2673 3.22058C19.2673 1.43449 17.8469 0 16.0467 0C14.2466 0 12.8262 1.43449 12.8262 3.22058C12.8262 5.00666 14.2607 6.44115 16.0467 6.44115Z" fill="#4DAEB4"/>
<path d="M32.1855 57V41.0302H37.0993V57H32.1855Z" fill="#07113D"/>
<path d="M49.4081 57L43.18 49.2772V57H38.8188V41.0302H42.971L49.1991 48.9088V41.0302H53.5602V57H49.4081Z" fill="#07113D"/>
<path d="M69.5303 49.0222C69.5303 54.3218 66.9304 57 61.7167 57H55.2803V41.0302H61.7167C66.9164 41.0302 69.5303 43.7083 69.5303 49.0222ZM60.0724 53.1882H61.548C63.5436 53.1882 64.5133 52.0546 64.5133 49.7307V48.3845C64.5133 46.0606 63.4874 44.927 61.548 44.927H60.0724V53.1882Z" fill="#07113D"/>
<path d="M70.7588 57V41.0302H75.4269V57H70.7588Z" fill="#07113D"/>
<path d="M87.3055 57L86.6854 54.7327H81.4567L80.8366 57H75.918L81.344 41.0302H86.9532L92.3792 57H87.3055ZM82.4433 51.176H85.6707L84.1909 45.5079H84.0922L82.4433 51.176Z" fill="#07113D"/>
<path d="M37.4376 32.6562C37.3673 33.3453 37.1142 33.8938 36.6641 34.2876C36.2141 34.6814 35.6234 34.8642 34.878 34.8642C34.3577 34.8642 33.9077 34.7376 33.5139 34.4985C33.1201 34.2595 32.8107 33.9079 32.5997 33.4438C32.3888 32.9937 32.2763 32.4593 32.2622 31.8686V31.2639C32.2622 30.6451 32.3747 30.1107 32.5857 29.6466C32.7966 29.1825 33.1201 28.8168 33.5279 28.5637C33.9358 28.3105 34.3999 28.184 34.9343 28.184C35.6515 28.184 36.2282 28.3809 36.6641 28.7606C37.1001 29.1544 37.3533 29.7028 37.4236 30.406H36.2985C36.2422 29.9419 36.1016 29.6044 35.8906 29.3934C35.6797 29.1825 35.3562 29.084 34.9202 29.084C34.428 29.084 34.0483 29.2669 33.7811 29.6185C33.5139 29.9841 33.3873 30.5045 33.3732 31.2076V31.7843C33.3732 32.4874 33.4998 33.0219 33.753 33.4016C34.0061 33.7813 34.3718 33.9501 34.864 33.9501C35.314 33.9501 35.6375 33.8516 35.8625 33.6547C36.0875 33.4578 36.2282 33.1203 36.2844 32.6562H37.4376Z" fill="#07113D"/>
<path d="M44.3287 31.6853C44.3287 32.3182 44.2162 32.8808 43.9911 33.3589C43.7661 33.8371 43.4567 34.2168 43.0489 34.47C42.641 34.7231 42.1629 34.8637 41.6284 34.8637C41.094 34.8637 40.6299 34.7372 40.2221 34.47C39.8142 34.2168 39.4908 33.8512 39.2658 33.373C39.0407 32.8948 38.9282 32.3463 38.9282 31.7275V31.3619C38.9282 30.729 39.0407 30.1665 39.2658 29.6742C39.4908 29.182 39.8142 28.8164 40.2221 28.5632C40.6299 28.3101 41.1081 28.1694 41.6284 28.1694C42.1629 28.1694 42.627 28.296 43.0348 28.5492C43.4427 28.8023 43.7661 29.168 43.9911 29.6461C44.2162 30.1243 44.3287 30.6868 44.3287 31.3197V31.6853ZM43.1895 31.3478C43.1895 30.6306 43.0489 30.068 42.7817 29.6883C42.5145 29.3086 42.1207 29.1117 41.6144 29.1117C41.1222 29.1117 40.7424 29.3086 40.4612 29.6883C40.1799 30.068 40.0393 30.6165 40.0393 31.3197V31.6994C40.0393 32.4167 40.1799 32.9651 40.4612 33.3589C40.7424 33.7527 41.1222 33.9496 41.6284 33.9496C42.1347 33.9496 42.5145 33.7527 42.7817 33.373C43.0489 32.9933 43.1895 32.4307 43.1895 31.6994V31.3478Z" fill="#07113D"/>
<path d="M47.2681 33.8653H50.2214V34.7654H46.1289V28.2679H47.254V33.8653H47.2681Z" fill="#07113D"/>
<path d="M56.6905 31.6853C56.6905 32.3182 56.578 32.8808 56.353 33.3589C56.1279 33.8371 55.8185 34.2168 55.4107 34.47C55.0028 34.7231 54.5247 34.8637 53.9903 34.8637C53.4558 34.8637 52.9917 34.7372 52.5839 34.47C52.176 34.2168 51.8526 33.8512 51.6276 33.373C51.4025 32.8948 51.29 32.3463 51.29 31.7275V31.3619C51.29 30.729 51.4025 30.1665 51.6276 29.6742C51.8526 29.182 52.176 28.8164 52.5839 28.5632C52.9917 28.3101 53.4699 28.1694 53.9903 28.1694C54.5247 28.1694 54.9888 28.296 55.3966 28.5492C55.8045 28.8023 56.1279 29.168 56.353 29.6461C56.578 30.1243 56.6905 30.6868 56.6905 31.3197V31.6853ZM55.5654 31.3478C55.5654 30.6306 55.4248 30.068 55.1575 29.6883C54.8903 29.3086 54.4965 29.1117 53.9903 29.1117C53.498 29.1117 53.1183 29.3086 52.837 29.6883C52.5558 30.068 52.4151 30.6165 52.4151 31.3197V31.6994C52.4151 32.4167 52.5558 32.9651 52.837 33.3589C53.1183 33.7527 53.498 33.9496 54.0043 33.9496C54.5106 33.9496 54.8903 33.7527 55.1575 33.373C55.4248 32.9933 55.5654 32.4307 55.5654 31.6994V31.3478Z" fill="#07113D"/>
<path d="M63.2728 28.2679V32.6136C63.2728 33.3027 63.0477 33.8512 62.6118 34.2591C62.1758 34.6669 61.5851 34.8638 60.8398 34.8638C60.0944 34.8638 59.5037 34.6669 59.0677 34.2731C58.6318 33.8793 58.4067 33.3168 58.4067 32.6136V28.2679H59.5318V32.6277C59.5318 33.0637 59.6443 33.4012 59.8694 33.6262C60.0944 33.8512 60.4178 33.9637 60.8398 33.9637C61.7117 33.9637 62.1477 33.4996 62.1477 32.5855V28.2679H63.2728Z" fill="#07113D"/>
<path d="M67.5617 32.262H66.296V34.7654H65.1709V28.2679H67.4633C68.2087 28.2679 68.7993 28.4367 69.2072 28.7742C69.615 29.1118 69.826 29.604 69.826 30.2369C69.826 30.6728 69.7275 31.0385 69.5166 31.3338C69.3056 31.6292 69.0103 31.8542 68.6446 32.0089L70.1072 34.7232V34.7794H68.8978L67.5617 32.262ZM66.296 31.3619H67.4633C67.843 31.3619 68.1383 31.2635 68.3634 31.0666C68.5743 30.8697 68.6868 30.6166 68.6868 30.279C68.6868 29.9275 68.5884 29.6602 68.3915 29.4634C68.1946 29.2665 67.8992 29.168 67.5055 29.168H66.3101V31.3619H66.296Z" fill="#07113D"/>
<path d="M74.9736 33.0917C74.9736 32.8104 74.8752 32.5854 74.6783 32.4307C74.4814 32.276 74.1158 32.1213 73.5954 31.9666C73.0751 31.8119 72.6531 31.6291 72.3437 31.4322C71.7531 31.0525 71.4577 30.5743 71.4577 29.9696C71.4577 29.4492 71.6687 29.0133 72.1047 28.6757C72.5406 28.3382 73.0891 28.1694 73.7642 28.1694C74.2142 28.1694 74.6221 28.2538 74.9736 28.4226C75.3252 28.5913 75.6065 28.8304 75.8034 29.1398C76.0003 29.4492 76.1128 29.7868 76.1128 30.1665H74.9877C74.9877 29.8289 74.8752 29.5617 74.6642 29.3648C74.4533 29.168 74.1439 29.0695 73.7501 29.0695C73.3845 29.0695 73.0891 29.1539 72.8922 29.3086C72.6813 29.4633 72.5828 29.6883 72.5828 29.9696C72.5828 30.2087 72.6953 30.4056 72.9204 30.5603C73.1454 30.715 73.511 30.8697 74.0173 31.0244C74.5236 31.1791 74.9315 31.3478 75.2409 31.5447C75.5503 31.7416 75.7753 31.9526 75.9159 32.2057C76.0565 32.4588 76.1269 32.7401 76.1269 33.0776C76.1269 33.6261 75.9159 34.048 75.5081 34.3715C75.0862 34.695 74.5236 34.8497 73.8204 34.8497C73.3563 34.8497 72.9204 34.7653 72.5266 34.5825C72.1328 34.4137 71.8234 34.1606 71.5984 33.8652C71.3734 33.5558 71.2749 33.2042 71.2749 32.7964H72.4C72.4 33.162 72.5266 33.4574 72.7657 33.6543C73.0047 33.8512 73.3563 33.9637 73.8204 33.9637C74.2142 33.9637 74.5095 33.8793 74.7064 33.7246C74.8752 33.5699 74.9736 33.3589 74.9736 33.0917Z" fill="#07113D"/>
<path d="M85.1133 31.6853C85.1133 32.3182 85.0008 32.8808 84.7758 33.3589C84.5508 33.8371 84.2414 34.2168 83.8335 34.47C83.4257 34.7231 82.9475 34.8637 82.4131 34.8637C81.8787 34.8637 81.4146 34.7372 81.0067 34.47C80.5989 34.2168 80.2754 33.8512 80.0504 33.373C79.8254 32.8948 79.7129 32.3463 79.7129 31.7275V31.3619C79.7129 30.729 79.8254 30.1665 80.0504 29.6742C80.2754 29.182 80.5989 28.8164 81.0067 28.5632C81.4146 28.3101 81.8928 28.1694 82.4131 28.1694C82.9475 28.1694 83.4116 28.296 83.8195 28.5492C84.2273 28.8023 84.5508 29.168 84.7758 29.6461C85.0008 30.1243 85.1133 30.6868 85.1133 31.3197V31.6853ZM83.9742 31.3478C83.9742 30.6306 83.8335 30.068 83.5663 29.6883C83.2991 29.3086 82.9053 29.1117 82.3991 29.1117C81.9068 29.1117 81.5271 29.3086 81.2458 29.6883C80.9646 30.068 80.8239 30.6165 80.8239 31.3197V31.6994C80.8239 32.4167 80.9646 32.9651 81.2458 33.3589C81.5271 33.7527 81.9068 33.9496 82.4131 33.9496C82.9194 33.9496 83.2991 33.7527 83.5663 33.373C83.8335 32.9933 83.9742 32.4307 83.9742 31.6994V31.3478Z" fill="#07113D"/>
<path d="M90.6823 32.0089H88.0665V34.7654H86.9414V28.2679H91.0761V29.1821H88.0665V31.1229H90.6823V32.0089Z" fill="#07113D"/>
</svg>
