<svg width="118" height="76" viewBox="0 0 118 76" fill="none" xmlns="http://www.w3.org/2000/svg">
<path d="M20.2457 8.85762C16.9223 8.72833 16.4014 11.3511 16.4014 11.3511V4.62793C16.4014 6.56731 17.6409 8.19269 19.4014 8.72833C19.6529 8.78374 19.9223 8.85762 20.2457 8.85762Z" fill="white"/>
<path d="M0 37.394H12.3413V50.0092C5.55091 50.0092 0 44.3019 0 37.394Z" fill="#4DAEB4"/>
<path d="M12.3413 37.394H24.6826V50.0092C17.8204 50.0092 12.3413 44.3019 12.3413 37.394Z" fill="#D8603E"/>
<path d="M24.6826 37.394H37.024V50.0092C30.1617 50.0092 24.6826 44.3019 24.6826 37.394Z" fill="#0A8188"/>
<path d="M12.3413 50.0093H24.6826V62.6429C17.8204 62.6429 12.3413 56.9356 12.3413 50.0093Z" fill="#4DAEB4"/>
<path d="M24.6826 50.0093H37.024V62.6429C30.1617 62.6429 24.6826 56.9356 24.6826 50.0093Z" fill="#D8603E"/>
<path d="M24.6826 62.6426H37.024V75.2578C30.1617 75.2578 24.6826 69.6243 24.6826 62.6426Z" fill="#4DAEB4"/>
<path d="M20.497 13.4194V34.3647H0C0 22.7469 9.21558 13.4194 20.497 13.4194Z" fill="#0A8188"/>
<path d="M20.4971 34.3648C29.6408 34.3648 37.0779 26.7735 37.0779 17.3721C37.0779 7.97076 29.7127 0.397949 20.4971 0.397949" fill="#F7971E"/>
<path d="M20.4971 8.85733C22.7785 8.85733 24.6109 6.97336 24.6109 4.62764C24.6109 2.28192 22.7965 0.397949 20.4971 0.397949C18.1977 0.397949 16.3833 2.28192 16.3833 4.62764C16.3833 6.97336 18.2156 8.85733 20.4971 8.85733Z" fill="#4DAEB4"/>
<path d="M41.1118 75.2579V54.2842H47.3884V75.2579H41.1118Z" fill="white"/>
<path d="M63.1111 75.2579L55.1556 65.1153V75.2579H49.585V54.2842H54.8886L62.8441 64.6315V54.2842H68.4148V75.2579H63.1111Z" fill="white"/>
<path d="M88.8139 64.7803C88.8139 71.7406 85.493 75.2579 78.8333 75.2579H70.6118V54.2842H78.8333C85.4751 54.2842 88.8139 57.8015 88.8139 64.7803ZM76.733 70.2517H78.6179C81.1669 70.2517 82.4055 68.7629 82.4055 65.7109V63.9429C82.4055 60.8908 81.0951 59.402 78.6179 59.402H76.733V70.2517Z" fill="white"/>
<path d="M90.3828 75.2579V54.2842H96.3456V75.2579H90.3828Z" fill="white"/>
<path d="M111.519 75.2579L110.727 72.2803H104.049L103.256 75.2579H96.9736L103.904 54.2842H111.069L118 75.2579H111.519ZM105.309 67.6091H109.431L107.541 60.165H107.415L105.309 67.6091Z" fill="white"/>
<path d="M47.8203 43.2866C47.7305 44.1917 47.4071 44.912 46.8322 45.4292C46.2574 45.9464 45.5029 46.1865 44.5508 46.1865C43.8861 46.1865 43.3113 46.0202 42.8083 45.7062C42.3053 45.3922 41.9101 44.9305 41.6406 44.321C41.3712 43.7299 41.2274 43.0281 41.2095 42.2523V41.4581C41.2095 40.6454 41.3532 39.9435 41.6226 39.334C41.8921 38.7245 42.3053 38.2443 42.8262 37.9118C43.3472 37.5793 43.94 37.4131 44.6227 37.4131C45.5388 37.4131 46.2754 37.6717 46.8322 38.1704C47.3891 38.6875 47.7125 39.4079 47.8023 40.3314H46.3652C46.2933 39.7219 46.1137 39.2786 45.8442 39.0015C45.5748 38.7245 45.1616 38.5952 44.6047 38.5952C43.9759 38.5952 43.4909 38.8353 43.1496 39.2971C42.8083 39.7773 42.6466 40.4607 42.6286 41.3842V42.1415C42.6286 43.065 42.7903 43.7669 43.1137 44.2656C43.437 44.7643 43.9041 44.9859 44.5328 44.9859C45.1077 44.9859 45.5209 44.8566 45.8083 44.598C46.0957 44.3394 46.2754 43.8962 46.3472 43.2866H47.8203Z" fill="white"/>
<path d="M56.6228 42.0111C56.6228 42.8423 56.4791 43.5811 56.1917 44.2091C55.9043 44.8371 55.5091 45.3358 54.9881 45.6682C54.4671 46.0007 53.8564 46.1854 53.1737 46.1854C52.4911 46.1854 51.8983 46.0192 51.3773 45.6682C50.8564 45.3358 50.4432 44.8555 50.1558 44.2276C49.8683 43.5996 49.7246 42.8792 49.7246 42.0665V41.5863C49.7246 40.7551 49.8683 40.0163 50.1558 39.3699C50.4432 38.7234 50.8564 38.2432 51.3773 37.9107C51.8983 37.5783 52.509 37.3936 53.1737 37.3936C53.8564 37.3936 54.4492 37.5598 54.9701 37.8923C55.4911 38.2247 55.9043 38.7049 56.1917 39.3329C56.4791 39.9609 56.6228 40.6997 56.6228 41.5309V42.0111ZM55.1677 41.5678C55.1677 40.6259 54.9881 39.887 54.6468 39.3883C54.3055 38.8896 53.8025 38.6311 53.1558 38.6311C52.527 38.6311 52.042 38.8896 51.6827 39.3883C51.3234 39.887 51.1438 40.6074 51.1438 41.5309V42.0296C51.1438 42.9716 51.3234 43.6919 51.6827 44.2091C52.042 44.7263 52.527 44.9848 53.1737 44.9848C53.8204 44.9848 54.3055 44.7263 54.6468 44.2276C54.9881 43.7289 55.1677 42.99 55.1677 42.0296V41.5678Z" fill="white"/>
<path d="M60.377 44.8746H64.1494V46.0567H58.9219V37.5234H60.359V44.8746H60.377Z" fill="white"/>
<path d="M72.4133 42.0111C72.4133 42.8423 72.2696 43.5811 71.9822 44.2091C71.6948 44.8371 71.2996 45.3358 70.7786 45.6682C70.2577 46.0007 69.6469 46.1854 68.9642 46.1854C68.2816 46.1854 67.6888 46.0192 67.1678 45.6682C66.6469 45.3358 66.2337 44.8555 65.9463 44.2276C65.6588 43.5996 65.5151 42.8792 65.5151 42.0665V41.5863C65.5151 40.7551 65.6588 40.0163 65.9463 39.3699C66.2337 38.7234 66.6469 38.2432 67.1678 37.9107C67.6888 37.5783 68.2996 37.3936 68.9642 37.3936C69.6469 37.3936 70.2397 37.5598 70.7607 37.8923C71.2816 38.2247 71.6948 38.7049 71.9822 39.3329C72.2696 39.9609 72.4133 40.6997 72.4133 41.5309V42.0111ZM70.9762 41.5678C70.9762 40.6259 70.7966 39.887 70.4553 39.3883C70.1139 38.8896 69.6109 38.6311 68.9642 38.6311C68.3355 38.6311 67.8505 38.8896 67.4912 39.3883C67.1319 39.887 66.9523 40.6074 66.9523 41.5309V42.0296C66.9523 42.9716 67.1319 43.6919 67.4912 44.2091C67.8505 44.7263 68.3355 44.9848 68.9822 44.9848C69.6289 44.9848 70.1139 44.7263 70.4553 44.2276C70.7966 43.7289 70.9762 42.99 70.9762 42.0296V41.5678Z" fill="white"/>
<path d="M80.8206 37.5234V43.2307C80.8206 44.1358 80.5331 44.8561 79.9763 45.3918C79.4194 45.9274 78.6649 46.186 77.7128 46.186C76.7607 46.186 76.0062 45.9274 75.4493 45.4102C74.8924 44.8931 74.605 44.1543 74.605 43.2307V37.5234H76.0421V43.2492C76.0421 43.8218 76.1858 44.2651 76.4733 44.5606C76.7607 44.8561 77.1739 45.0039 77.7128 45.0039C78.8265 45.0039 79.3834 44.3944 79.3834 43.1938V37.5234H80.8206Z" fill="white"/>
<path d="M86.2995 42.769H84.6827V46.0567H83.2456V37.5234H86.1738C87.1259 37.5234 87.8803 37.7451 88.4013 38.1884C88.9223 38.6317 89.1917 39.2781 89.1917 40.1093C89.1917 40.6819 89.066 41.1621 88.7965 41.55C88.5271 41.9378 88.1498 42.2334 87.6827 42.4365L89.551 46.0013V46.0752H88.0061L86.2995 42.769ZM84.6827 41.5869H86.1738C86.6588 41.5869 87.036 41.4576 87.3235 41.199C87.5929 40.9404 87.7366 40.608 87.7366 40.1647C87.7366 39.7029 87.6109 39.352 87.3594 39.0934C87.1079 38.8348 86.7306 38.7055 86.2276 38.7055H84.7007V41.5869H84.6827Z" fill="white"/>
<path d="M95.7665 43.8582C95.7665 43.4887 95.6408 43.1932 95.3893 42.99C95.1378 42.7869 94.6707 42.5837 94.0061 42.3805C93.3414 42.1774 92.8025 41.9372 92.4073 41.6787C91.6528 41.18 91.2755 40.552 91.2755 39.7578C91.2755 39.0744 91.545 38.5018 92.1019 38.0585C92.6588 37.6152 93.3594 37.3936 94.2216 37.3936C94.7965 37.3936 95.3174 37.5044 95.7665 37.726C96.2157 37.9477 96.5749 38.2617 96.8264 38.668C97.0779 39.0743 97.2216 39.5176 97.2216 40.0163H95.7845C95.7845 39.573 95.6408 39.2221 95.3713 38.9635C95.1019 38.7049 94.7067 38.5757 94.2037 38.5757C93.7366 38.5757 93.3594 38.6865 93.1079 38.8896C92.8384 39.0928 92.7127 39.3883 92.7127 39.7578C92.7127 40.0717 92.8564 40.3303 93.1438 40.5335C93.4312 40.7367 93.8983 40.9398 94.545 41.143C95.1917 41.3462 95.7127 41.5678 96.1079 41.8264C96.5031 42.085 96.7905 42.3621 96.9701 42.6945C97.1498 43.027 97.2396 43.3964 97.2396 43.8397C97.2396 44.56 96.9702 45.1141 96.4492 45.5389C95.9103 45.9638 95.1917 46.1669 94.2935 46.1669C93.7007 46.1669 93.1438 46.0561 92.6408 45.816C92.1378 45.5944 91.7426 45.2619 91.4552 44.874C91.1677 44.4677 91.042 44.0059 91.042 43.4703H92.4791C92.4791 43.9505 92.6408 44.3384 92.9462 44.597C93.2516 44.8555 93.7007 45.0033 94.2935 45.0033C94.7965 45.0033 95.1737 44.8925 95.4252 44.6893C95.6408 44.4861 95.7665 44.2091 95.7665 43.8582Z" fill="white"/>
<path d="M108.719 42.0111C108.719 42.8423 108.575 43.5811 108.287 44.2091C108 44.8371 107.605 45.3358 107.084 45.6682C106.563 46.0007 105.952 46.1854 105.269 46.1854C104.587 46.1854 103.994 46.0192 103.473 45.6682C102.952 45.3358 102.539 44.8555 102.251 44.2276C101.964 43.5996 101.82 42.8792 101.82 42.0665V41.5863C101.82 40.7551 101.964 40.0163 102.251 39.3699C102.539 38.7234 102.952 38.2432 103.473 37.9107C103.994 37.5783 104.605 37.3936 105.269 37.3936C105.952 37.3936 106.545 37.5598 107.066 37.8923C107.587 38.2247 108 38.7049 108.287 39.3329C108.575 39.9609 108.719 40.6997 108.719 41.5309V42.0111ZM107.263 41.5678C107.263 40.6259 107.084 39.887 106.742 39.3883C106.401 38.8896 105.898 38.6311 105.251 38.6311C104.623 38.6311 104.138 38.8896 103.778 39.3883C103.419 39.887 103.239 40.6074 103.239 41.5309V42.0296C103.239 42.9716 103.419 43.6919 103.778 44.2091C104.138 44.7263 104.623 44.9848 105.269 44.9848C105.916 44.9848 106.401 44.7263 106.742 44.2276C107.084 43.7289 107.263 42.99 107.263 42.0296V41.5678Z" fill="white"/>
<path d="M115.832 42.4365H112.491V46.0567H111.054V37.5234H116.335V38.724H112.491V41.2729H115.832V42.4365Z" fill="white"/>
</svg>
